<svg width="24" height="24" viewBox="0 0 24 24" fill="none" xmlns="http://www.w3.org/2000/svg">
<path d="M16 16L13.5 13.5M3 7V5C3 4.46957 3.21071 3.96086 3.58579 3.58579C3.96086 3.21071 4.46957 3 5 3H7M3 17V19C3 19.5304 3.21071 20.0391 3.58579 20.4142C3.96086 20.7893 4.46957 21 5 21H7M17 3H19C19.5304 3 20.0391 3.21071 20.4142 3.58579C20.7893 3.96086 21 4.46957 21 5V7M17 21H19C19.5304 21 20.0391 20.7893 20.4142 20.4142C20.7893 20.0391 21 19.5304 21 19V17M8 11C8 11.394 8.0776 11.7841 8.22836 12.1481C8.37913 12.512 8.6001 12.8427 8.87868 13.1213C9.15726 13.3999 9.48797 13.6209 9.85195 13.7716C10.2159 13.9224 10.606 14 11 14C11.394 14 11.7841 13.9224 12.1481 13.7716C12.512 13.6209 12.8427 13.3999 13.1213 13.1213C13.3999 12.8427 13.6209 12.512 13.7716 12.1481C13.9224 11.7841 14 11.394 14 11C14 10.2044 13.6839 9.44129 13.1213 8.87868C12.5587 8.31607 11.7956 8 11 8C10.2044 8 9.44129 8.31607 8.87868 8.87868C8.31607 9.44129 8 10.2044 8 11Z" stroke="black" stroke-width="2" stroke-linecap="round" stroke-linejoin="round"/>
</svg>
