<svg style="position: absolute; width: 0; height: 0; overflow: hidden;" aria-hidden="true" xmlns="http://www.w3.org/2000/svg" xmlns:xlink="http://www.w3.org/1999/xlink"><symbol viewBox="0 0 16 25" fill="none" stroke="currentColor" id="icon-arrow" xmlns="http://www.w3.org/2000/svg"><path d="M13.1942 2L2.82837 12.3659L13.1942 22.7317" stroke-width="4" stroke-linecap="round"/></symbol><symbol viewBox="0 0 17 23" fill="none" stroke="currentColor" id="icon-map-pin" xmlns="http://www.w3.org/2000/svg"><path d="M14.0788 7.23113C14.0183 7.00434 13.8954 6.76268 13.8045 6.55111C12.7167 3.93689 10.3399 3 8.42078 3C5.85165 3 3.02206 4.72271 2.64429 8.27362V8.99909C2.64429 9.02937 2.65472 9.30134 2.66954 9.43738C2.88131 11.1297 4.21665 12.9282 5.21393 14.6205C6.28686 16.4336 7.40018 18.2171 8.50319 20C9.18332 18.8365 9.86101 17.6578 10.5257 16.5245C10.7068 16.1919 10.9171 15.8595 11.0984 15.542C11.2193 15.3306 11.4502 15.1192 11.5557 14.9226C12.6285 12.9583 14.3555 10.9788 14.3555 9.02933V8.22849C14.3555 8.01715 14.0936 7.2767 14.0788 7.23113ZM8.46781 10.873C7.71262 10.873 6.88601 10.4954 6.478 9.45252C6.41721 9.28651 6.42211 8.95384 6.42211 8.92336V8.45492C6.42211 7.12548 7.55093 6.52091 8.53295 6.52091C9.74192 6.52091 10.677 7.48815 10.677 8.69713C10.677 9.90606 9.67678 10.873 8.46781 10.873Z" fill="currentColor"/></symbol><symbol viewBox="0 0 25 25" fill="none" stroke="currentColor" id="icon-phone_01" xmlns="http://www.w3.org/2000/svg"><path d="M17.2744 14.258C16.7684 13.7585 16.1368 13.7585 15.634 14.258C15.2505 14.6383 14.867 15.0186 14.49 15.4053C14.3869 15.5116 14.2999 15.5342 14.1742 15.4633C13.926 15.3279 13.6618 15.2184 13.4233 15.0701C12.3115 14.3708 11.3801 13.4717 10.5551 12.4598C10.1458 11.957 9.78168 11.4188 9.52709 10.813C9.47553 10.6905 9.4852 10.6099 9.5851 10.51C9.9686 10.1394 10.3424 9.75916 10.7195 9.37888C11.2448 8.85037 11.2448 8.23161 10.7163 7.69987C10.4165 7.39694 10.1168 7.10046 9.81713 6.79753C9.50776 6.48815 9.2016 6.17555 8.889 5.8694C8.38305 5.37633 7.7514 5.37633 7.24867 5.87262C6.86195 6.2529 6.49134 6.64284 6.09818 7.01667C5.73401 7.36149 5.55032 7.78366 5.51165 8.27673C5.45042 9.07918 5.647 9.8365 5.92415 10.5745C6.49134 12.102 7.35502 13.4588 8.40238 14.7027C9.81713 16.385 11.5058 17.7159 13.4813 18.6763C14.3708 19.1081 15.2924 19.4401 16.2947 19.4948C16.9843 19.5335 17.5838 19.3595 18.0639 18.8213C18.3926 18.4539 18.7633 18.1188 19.1113 17.7675C19.6269 17.2454 19.6301 16.6138 19.1177 16.0981C18.5054 15.4826 17.8899 14.8703 17.2744 14.258Z" fill="currentColor"/></symbol><symbol viewBox="0 0 19 19" fill="none" stroke="currentColor" id="icon-phone_02" xmlns="http://www.w3.org/2000/svg"><path d="M14.4455 12.5686C13.8247 11.9557 13.0498 11.9557 12.4329 12.5686C11.9624 13.0351 11.4919 13.5017 11.0293 13.9762C10.9028 14.1067 10.796 14.1343 10.6418 14.0473C10.3374 13.8813 10.0132 13.7468 9.72058 13.565C8.35648 12.707 7.21381 11.6038 6.20161 10.3623C5.69947 9.74551 5.25268 9.08521 4.94032 8.34188C4.87706 8.19163 4.88892 8.09278 5.01149 7.97021C5.482 7.51551 5.94065 7.04895 6.40326 6.58239C7.04774 5.93395 7.04774 5.17481 6.39931 4.52241C6.03159 4.15075 5.66388 3.78699 5.29617 3.41532C4.9166 3.03575 4.54098 2.65222 4.15745 2.2766C3.53669 1.67166 2.76172 1.67166 2.14492 2.28056C1.67045 2.74712 1.21575 3.22554 0.733378 3.68419C0.286589 4.10725 0.0612166 4.62522 0.0137699 5.23016C-0.061354 6.21468 0.179833 7.14385 0.519868 8.04929C1.21575 9.92343 2.2754 11.588 3.56041 13.1142C5.29617 15.1782 7.36801 16.8111 9.79175 17.9894C10.883 18.5192 12.0138 18.9264 13.2435 18.9937C14.0896 19.0411 14.825 18.8276 15.4142 18.1673C15.8175 17.7166 16.2722 17.3053 16.6992 16.8744C17.3318 16.2338 17.3358 15.4589 16.7071 14.8263C15.9559 14.0711 15.2007 13.3198 14.4455 12.5686Z" fill="currentColor"/><path d="M13.6905 9.41851L15.1495 9.16942C14.9202 7.82905 14.2876 6.6152 13.3268 5.65045C12.3106 4.6343 11.0256 3.99377 9.6101 3.79608L9.4045 5.26297C10.4997 5.41717 11.4961 5.91141 12.2829 6.69824C13.0263 7.44157 13.5126 8.38259 13.6905 9.41851Z" fill="currentColor"/><path d="M15.9718 3.07613C14.2875 1.39177 12.1563 0.328173 9.80374 0L9.59814 1.46689C11.6304 1.75157 13.473 2.67283 14.928 4.12391C16.3079 5.50382 17.2133 7.24748 17.5415 9.16512L19.0005 8.91603C18.617 6.69394 17.5692 4.67745 15.9718 3.07613Z" fill="currentColor"/></symbol><symbol viewBox="0 0 24 24" fill="none" stroke="currentColor" id="icon-zoom" xmlns="http://www.w3.org/2000/svg"><path d="M16 16L13.5 13.5M3 7V5C3 4.46957 3.21071 3.96086 3.58579 3.58579C3.96086 3.21071 4.46957 3 5 3H7M3 17V19C3 19.5304 3.21071 20.0391 3.58579 20.4142C3.96086 20.7893 4.46957 21 5 21H7M17 3H19C19.5304 3 20.0391 3.21071 20.4142 3.58579C20.7893 3.96086 21 4.46957 21 5V7M17 21H19C19.5304 21 20.0391 20.7893 20.4142 20.4142C20.7893 20.0391 21 19.5304 21 19V17M8 11C8 11.394 8.0776 11.7841 8.22836 12.1481C8.37913 12.512 8.6001 12.8427 8.87868 13.1213C9.15726 13.3999 9.48797 13.6209 9.85195 13.7716C10.2159 13.9224 10.606 14 11 14C11.394 14 11.7841 13.9224 12.1481 13.7716C12.512 13.6209 12.8427 13.3999 13.1213 13.1213C13.3999 12.8427 13.6209 12.512 13.7716 12.1481C13.9224 11.7841 14 11.394 14 11C14 10.2044 13.6839 9.44129 13.1213 8.87868C12.5587 8.31607 11.7956 8 11 8C10.2044 8 9.44129 8.31607 8.87868 8.87868C8.31607 9.44129 8 10.2044 8 11Z" stroke-width="2" stroke-linecap="round" stroke-linejoin="round"/></symbol></svg>